<svg xmlns="http://www.w3.org/2000/svg" width="110" height="88" viewBox="0 0 110 88">
  <path id="Icon_awesome-laptop-code" data-name="Icon awesome-laptop-code" d="M43.833,44.971a2.75,2.75,0,0,0,3.89,0l1.944-1.944a2.75,2.75,0,0,0,0-3.89L43.527,33l6.138-6.139a2.75,2.75,0,0,0,0-3.89l-1.944-1.944a2.75,2.75,0,0,0-3.89,0L33.8,31.054a2.75,2.75,0,0,0,0,3.89L43.833,44.971Zm16.5-1.942,1.944,1.944a2.75,2.75,0,0,0,3.89,0L76.2,34.946a2.75,2.75,0,0,0,0-3.89L66.168,21.029a2.75,2.75,0,0,0-3.89,0l-1.944,1.944a2.75,2.75,0,0,0,0,3.89L66.473,33l-6.138,6.139a2.75,2.75,0,0,0,0,3.89ZM107.25,71.5H65.577A5.418,5.418,0,0,1,59.95,77H49.5a5.837,5.837,0,0,1-5.632-5.5H2.75A2.758,2.758,0,0,0,0,74.25V77A11.032,11.032,0,0,0,11,88H99a11.032,11.032,0,0,0,11-11V74.25A2.758,2.758,0,0,0,107.25,71.5ZM99,8.25A8.274,8.274,0,0,0,90.75,0H19.25A8.274,8.274,0,0,0,11,8.25V66H99ZM88,55H22V11H88Z" fill="#22ace3"/>
</svg>
