<svg xmlns="http://www.w3.org/2000/svg" width="75.667" height="75.667" viewBox="0 0 75.667 75.667">
  <path id="Icon_awesome-pen-nib" data-name="Icon awesome-pen-nib" d="M20.188,20.511a9.459,9.459,0,0,0-6.4,6.111L0,67.982l2.171,2.171L24.355,47.968A7.161,7.161,0,1,1,27.7,51.311L5.514,73.5l2.171,2.171L49.044,61.88a9.459,9.459,0,0,0,6.111-6.4L61.479,33.1,42.562,14.188Zm53.4-9.55L64.705,2.078a7.1,7.1,0,0,0-10.036,0l-8.357,8.357,18.92,18.92L73.588,21a7.1,7.1,0,0,0,0-10.036Z" transform="translate(0 0)" fill="#22ace3"/>
</svg>
