<svg xmlns="http://www.w3.org/2000/svg" xmlns:xlink="http://www.w3.org/1999/xlink" width="546" height="541" viewBox="0 0 546 541">
  <defs>
    <filter id="Rectangle_24" x="47" y="11" width="449" height="102" filterUnits="userSpaceOnUse">
      <feOffset dy="3" input="SourceAlpha"/>
      <feGaussianBlur stdDeviation="3" result="blur"/>
      <feFlood flood-opacity="0.161"/>
      <feComposite operator="in" in2="blur"/>
      <feComposite in="SourceGraphic"/>
    </filter>
    <filter id="Rectangle_25" x="50" y="113" width="449" height="102" filterUnits="userSpaceOnUse">
      <feOffset dy="3" input="SourceAlpha"/>
      <feGaussianBlur stdDeviation="3" result="blur-2"/>
      <feFlood flood-opacity="0.161"/>
      <feComposite operator="in" in2="blur-2"/>
      <feComposite in="SourceGraphic"/>
    </filter>
    <filter id="Rectangle_26" x="50" y="213" width="449" height="102" filterUnits="userSpaceOnUse">
      <feOffset dy="3" input="SourceAlpha"/>
      <feGaussianBlur stdDeviation="3" result="blur-3"/>
      <feFlood flood-opacity="0.161"/>
      <feComposite operator="in" in2="blur-3"/>
      <feComposite in="SourceGraphic"/>
    </filter>
    <filter id="Rectangle_28" x="48" y="415" width="449" height="102" filterUnits="userSpaceOnUse">
      <feOffset dy="3" input="SourceAlpha"/>
      <feGaussianBlur stdDeviation="3" result="blur-4"/>
      <feFlood flood-opacity="0.161"/>
      <feComposite operator="in" in2="blur-4"/>
      <feComposite in="SourceGraphic"/>
    </filter>
    <filter id="Rectangle_27" x="50" y="313" width="449" height="102" filterUnits="userSpaceOnUse">
      <feOffset dy="3" input="SourceAlpha"/>
      <feGaussianBlur stdDeviation="3" result="blur-5"/>
      <feFlood flood-opacity="0.161"/>
      <feComposite operator="in" in2="blur-5"/>
      <feComposite in="SourceGraphic"/>
    </filter>
  </defs>
  <g id="Group_37" data-name="Group 37" transform="translate(-1136 -255)">
    <path id="Polygon_3" data-name="Polygon 3" d="M16,0,32,18H0Z" transform="translate(1177.5 333.5) rotate(-90)" fill="#eacdac"/>
    <path id="Polygon_2" data-name="Polygon 2" d="M16,0,32,18H0Z" transform="translate(1177.5 532.5) rotate(-90)" fill="#eacdac"/>
    <path id="Polygon_5" data-name="Polygon 5" d="M16,0,32,18H0Z" transform="translate(1175.5 733.5) rotate(-90)" fill="#eacdac"/>
    <path id="Polygon_1" data-name="Polygon 1" d="M16,0,32,18H0Z" transform="translate(1641.5 402.5) rotate(90)" fill="#eacdac"/>
    <g id="Group_21" data-name="Group 21" transform="translate(-6 -315)">
      <rect id="Rectangle_15" data-name="Rectangle 15" width="9" height="100" rx="4.5" transform="translate(1160 580)" fill="#1dd1fe"/>
      <rect id="Rectangle_23" data-name="Rectangle 23" width="9" height="100" rx="4.5" transform="translate(1160 981)" fill="#1dd1fe"/>
      <rect id="Rectangle_16" data-name="Rectangle 16" width="9" height="511" transform="translate(1160.5 685.5) rotate(-90)" fill="#1dd1fe"/>
      <g id="Group_20" data-name="Group 20" transform="translate(-2 97)">
        <path id="Path_7" data-name="Path 7" d="M0,0H7.9V102.079H0Z" transform="translate(1673.5 683.079) rotate(180)" fill="#1dd1fe"/>
        <rect id="Rectangle_18" data-name="Rectangle 18" width="8" height="511" transform="translate(1162 690) rotate(-90)" fill="#1dd1fe"/>
        <rect id="Rectangle_20" data-name="Rectangle 20" width="8" height="511" transform="translate(1162 790) rotate(-90)" fill="#1dd1fe"/>
        <rect id="Rectangle_22" data-name="Rectangle 22" width="8" height="511" transform="translate(1162 890) rotate(-90)" fill="#1dd1fe"/>
      </g>
      <rect id="Rectangle_19" data-name="Rectangle 19" width="9" height="100" transform="translate(1160 781)" fill="#1dd1fe"/>
      <rect id="Rectangle_21" data-name="Rectangle 21" width="9" height="100" rx="4.5" transform="translate(1662 881)" fill="#1dd1fe"/>
      <circle id="Ellipse_20" data-name="Ellipse 20" cx="20" cy="20" r="20" transform="translate(1145 611)" fill="#f98908"/>
      <circle id="Ellipse_22" data-name="Ellipse 22" cx="20" cy="20" r="20" transform="translate(1648 713)" fill="#f98908"/>
      <circle id="Ellipse_23" data-name="Ellipse 23" cx="20" cy="20" r="20" transform="translate(1648 911)" fill="#f98908"/>
      <circle id="Ellipse_24" data-name="Ellipse 24" cx="20" cy="20" r="20" transform="translate(1144 1011)" fill="#f98908"/>
      <text id="_1" data-name="1" transform="translate(1159 638)" fill="#fffdfd" font-size="20" font-family="SegoeUI-Bold, Segoe UI" font-weight="700"><tspan x="0" y="0">1</tspan></text>
      <circle id="Ellipse_21" data-name="Ellipse 21" cx="20" cy="20" r="20" transform="translate(1145 811)" fill="#f98908"/>
      <text id="_3" data-name="3" transform="translate(1159 840)" fill="#fffdfd" font-size="20" font-family="SegoeUI-Bold, Segoe UI" font-weight="700"><tspan x="0" y="0">3</tspan></text>
      <text id="_2" data-name="2" transform="translate(1662 740)" fill="#fffdfd" font-size="20" font-family="SegoeUI-Bold, Segoe UI" font-weight="700"><tspan x="0" y="0">2</tspan></text>
      <text id="_4" data-name="4" transform="translate(1662 940)" fill="#fffdfd" font-size="20" font-family="SegoeUI-Bold, Segoe UI" font-weight="700"><tspan x="0" y="0">4</tspan></text>
      <text id="_5" data-name="5" transform="translate(1158 1040)" fill="#fffdfd" font-size="20" font-family="SegoeUI-Bold, Segoe UI" font-weight="700"><tspan x="0" y="0">5</tspan></text>
    </g>
    <path id="Polygon_4" data-name="Polygon 4" d="M16,0,32,18H0Z" transform="translate(1642.5 600.5) rotate(90)" fill="#eacdac"/>
    <g transform="matrix(1, 0, 0, 1, 1136, 255)" filter="url(#Rectangle_24)">
      <rect id="Rectangle_24-2" data-name="Rectangle 24" width="431" height="84" rx="9" transform="translate(56 17)" fill="#eacdac"/>
    </g>
    <g transform="matrix(1, 0, 0, 1, 1136, 255)" filter="url(#Rectangle_25)">
      <rect id="Rectangle_25-2" data-name="Rectangle 25" width="431" height="84" rx="9" transform="translate(59 119)" fill="#eacdac"/>
    </g>
    <g transform="matrix(1, 0, 0, 1, 1136, 255)" filter="url(#Rectangle_26)">
      <rect id="Rectangle_26-2" data-name="Rectangle 26" width="431" height="84" rx="9" transform="translate(59 219)" fill="#eacdac"/>
    </g>
    <g transform="matrix(1, 0, 0, 1, 1136, 255)" filter="url(#Rectangle_28)">
      <rect id="Rectangle_28-2" data-name="Rectangle 28" width="431" height="84" rx="9" transform="translate(57 421)" fill="#eacdac"/>
    </g>
    <g transform="matrix(1, 0, 0, 1, 1136, 255)" filter="url(#Rectangle_27)">
      <rect id="Rectangle_27-2" data-name="Rectangle 27" width="431" height="84" rx="9" transform="translate(59 319)" fill="#eacdac"/>
    </g>
    <path id="Polygon_6" data-name="Polygon 6" d="M19.035,6.006a4,4,0,0,1,6.929,0L41.539,33a4,4,0,0,1-3.465,6H6.926a4,4,0,0,1-3.465-6Z" transform="translate(1181 796) rotate(180)" fill="#1dd1fe"/>
    <circle id="Ellipse_26" data-name="Ellipse 26" cx="10.5" cy="10.5" r="10.5" transform="translate(1148 255)" fill="#1dd1fe"/>
    <text id="Freelancers_sign_up" data-name="Freelancers sign up" transform="translate(1269 328)" fill="#fff" font-size="30" font-family="Quicksand-Bold, Quicksand" font-weight="700"><tspan x="0" y="0">Freelancers sign up</tspan></text>
    <text id="Vetting_of_freelancer" data-name="Vetting of freelancer" transform="translate(1269 430)" fill="#fff" font-size="30" font-family="Quicksand-Bold, Quicksand" font-weight="700"><tspan x="0" y="0">Vetting of freelancer</tspan></text>
    <text id="Freelancer_profile_setup" data-name="Freelancer profile setup" transform="translate(1236 532)" fill="#fff" font-size="30" font-family="Quicksand-Bold, Quicksand" font-weight="700"><tspan x="0" y="0">Freelancer profile setup</tspan></text>
    <text id="Project_commencement" data-name="Project commencement" transform="translate(1236 628)" fill="#fff" font-size="30" font-family="Quicksand-Bold, Quicksand" font-weight="700"><tspan x="0" y="0">Project commencement</tspan></text>
    <text id="Project_completion" data-name="Project completion" transform="translate(1273 729)" fill="#fff" font-size="30" font-family="Quicksand-Bold, Quicksand" font-weight="700"><tspan x="0" y="0">Project completion</tspan></text>
  </g>
</svg>
