<svg xmlns="http://www.w3.org/2000/svg" width="296.624" height="268.25" viewBox="0 0 296.624 268.25">
  <g id="Group_36" data-name="Group 36" transform="translate(-251 -133.75)">
    <path id="Subtraction_3" data-name="Subtraction 3" d="M134,1532h-.015a134.9,134.9,0,0,1-26.991-2.721,133.265,133.265,0,0,1-47.915-20.163,134.39,134.39,0,0,1-48.549-58.956,133.325,133.325,0,0,1-7.808-25.153,135.306,135.306,0,0,1,0-54.011,133.268,133.268,0,0,1,20.163-47.915,134.392,134.392,0,0,1,58.956-48.549,133.32,133.32,0,0,1,25.153-7.808A134.982,134.982,0,0,1,134,1264Z" transform="translate(251 -1130)" fill="#0b66b7"/>
    <path id="Subtraction_4" data-name="Subtraction 4" d="M151.5,1350.5H16.523c-.016-.85-.023-1.691-.023-2.5a134.994,134.994,0,0,1,2.722-27.006,133.269,133.269,0,0,1,20.163-47.915,134.39,134.39,0,0,1,58.956-48.549,133.324,133.324,0,0,1,25.153-7.808A134.99,134.99,0,0,1,150.5,1214c.334,0,.671,0,1,0v136.5h0Z" transform="translate(1739.75 117.251) rotate(90)" fill="#0bacb7"/>
    <path id="Subtraction_8" data-name="Subtraction 8" d="M201.381,1321.036h0c-38.506-38.189-69.271-67.527-91.441-87.2a132.279,132.279,0,0,1,40.151-25.778,134.045,134.045,0,0,1,24.735-7.458,136.559,136.559,0,0,1,26.556-2.6v123.034h0Z" transform="matrix(-0.719, 0.695, -0.695, -0.719, 1458.908, 1084.869)" fill="#0bb778"/>
    <path id="Path_8" data-name="Path 8" d="M120,120" transform="translate(388.5 269.5)" fill="none" stroke="#707070" stroke-width="5"/>
    <path id="Subtraction_12" data-name="Subtraction 12" d="M191.159,1328.051h0l-2.522-.133c.823-.5,1.7-1.038,2.613-1.6l-.091,1.73Zm.276-5.262h0c-32.955-37.419-59.549-66.514-79.045-86.475a121.2,121.2,0,0,1,17.2-12.792,119.165,119.165,0,0,1,20.9-10.169,117.332,117.332,0,0,1,40.828-7.3c2.066,0,4.16.055,6.224.163l-6.109,116.572v0h0Z" transform="translate(630.218 1597.653) rotate(178)" fill="#660bb7"/>
  </g>
</svg>
