<svg xmlns="http://www.w3.org/2000/svg" xmlns:xlink="http://www.w3.org/1999/xlink" width="272" height="272" viewBox="0 0 272 272">
  <defs>
    <linearGradient id="linear-gradient" x1="0.735" y1="0.871" x2="0.255" y2="-0.329" gradientUnits="objectBoundingBox">
      <stop offset="0" stop-color="#08194a"/>
      <stop offset="1" stop-color="#0c8aea"/>
    </linearGradient>
  </defs>
  <g id="Group_35" data-name="Group 35" transform="translate(-835 -372)">
    <circle id="Ellipse_28" data-name="Ellipse 28" cx="136" cy="136" r="136" transform="translate(835 372)" fill="#c6c6cc"/>
    <circle id="Ellipse_27" data-name="Ellipse 27" cx="109.5" cy="109.5" r="109.5" transform="translate(861 398)" fill="#fff"/>
    <path id="Subtraction_2" data-name="Subtraction 2" d="M136,325.088a137.007,137.007,0,0,1-27.409-2.763,135.257,135.257,0,0,1-48.63-20.463,136.383,136.383,0,0,1-49.274-59.837A135.295,135.295,0,0,1,2.763,216.5a137.326,137.326,0,0,1,0-54.817,135.257,135.257,0,0,1,20.463-48.63A136.416,136.416,0,0,1,83.063,63.776a135.388,135.388,0,0,1,25.529-7.924A137.01,137.01,0,0,1,136,53.088c.772,0,1.556.007,2.332.02l-3.19,25.981A109.5,109.5,0,1,0,178.4,87.842l3.3-26.883c2.44.87,4.875,1.818,7.238,2.818A135.991,135.991,0,0,1,136,325.088Z" transform="translate(835 318.911)" fill="url(#linear-gradient)"/>
    <text id="_94_" data-name="94%" transform="translate(898 538)" fill="#0a488c" font-size="80" font-family="Quicksand-Light, Quicksand" font-weight="300"><tspan x="0" y="0">94%</tspan></text>
  </g>
</svg>
